<svg width="62" height="68" viewBox="0 0 62 68" fill="none" xmlns="http://www.w3.org/2000/svg">
<g clip-path="url(#clip0_164_59)">
<path d="M30.7549 60.2278C26.8152 60.2278 22.9141 59.4516 19.2744 57.9439C15.6346 56.4367 12.3274 54.2268 9.54167 51.4409C6.75589 48.655 4.54613 45.348 3.03849 41.7083C1.53085 38.0685 0.754879 34.1674 0.754883 30.2278H10.9046C10.9046 32.8346 11.418 35.4158 12.4156 37.8242C13.4132 40.2325 14.8753 42.4208 16.7186 44.264C18.5619 46.1073 20.7501 47.5695 23.1585 48.5671C25.5669 49.5646 28.1481 50.0782 30.7549 50.0782V60.2278Z" fill="#3C7AFC"/>
<path d="M30.7549 0.227783C34.6945 0.227783 38.5956 1.00376 42.2354 2.5114C45.8752 4.01904 49.1826 6.22884 51.968 9.01457C54.7539 11.8003 56.9638 15.1075 58.471 18.7473C59.9787 22.3871 60.7549 26.2881 60.7549 30.2278H50.6053C50.6053 27.621 50.0917 25.0397 49.0942 22.6314C48.0966 20.2231 46.6344 18.0348 44.7911 16.1915C42.9479 14.3482 40.7596 12.8861 38.3513 11.8885C35.9429 10.8909 33.3617 10.3775 30.7549 10.3775V0.227783Z" fill="#FFBD00"/>
<path d="M30.7549 0.227783C26.8152 0.227783 22.9141 1.00376 19.2744 2.5114C15.6346 4.01904 12.3274 6.22884 9.54166 9.01456C6.75594 11.8003 4.54613 15.1075 3.03849 18.7473C1.53085 22.3871 0.75488 26.2881 0.754883 30.2278H10.9046C10.9046 27.621 11.418 25.0397 12.4156 22.6314C13.4132 20.2231 14.8753 18.0348 16.7186 16.1915C18.5619 14.3483 20.7501 12.8861 23.1585 11.8885C25.5668 10.8909 28.1481 10.3775 30.7549 10.3775V0.227783Z" fill="#FB260A"/>
<path d="M30.7549 60.2278C34.6945 60.2278 38.5956 59.4516 42.2354 57.9439C45.8752 56.4367 49.1826 54.2268 51.968 51.4409C54.7539 48.655 56.9638 45.348 58.471 41.7083C59.9787 38.0685 60.7549 34.1674 60.7549 30.2278H50.6053C50.6053 32.8346 50.0917 35.4158 49.0942 37.8242C48.0966 40.2325 46.6344 42.4208 44.7911 44.264C42.9479 46.1073 40.7596 47.5695 38.3513 48.5671C35.9429 49.5646 33.3617 50.0782 30.7549 50.0782V60.2278Z" fill="#00A453"/>
</g>
<defs>
<clipPath id="clip0_164_59">
<rect width="60.4583" height="67.0977" fill="white" transform="translate(0.754883 0.227783)"/>
</clipPath>
</defs>
</svg>
