<svg width="978" height="700" viewBox="0 0 978 1100" fill="none" xmlns="http://www.w3.org/2000/svg">
<path d="M1742.5 550C1742.5 701.646 1645.1 839.009 1487.48 938.486C1329.86 1037.96 1112.08 1099.5 871.5 1099.5C630.922 1099.5 413.142 1037.96 255.523 938.486C97.8979 839.009 0.5 701.646 0.5 550C0.5 398.354 97.8979 260.991 255.523 161.514C413.142 62.0415 630.922 0.5 871.5 0.5C1112.08 0.5 1329.86 62.0415 1487.48 161.514C1645.1 260.991 1742.5 398.354 1742.5 550Z" stroke="#4285F4"/>
<path d="M1863.5 549.5C1863.5 682.197 1766.14 802.438 1608.5 889.534C1450.88 976.62 1233.09 1030.5 992.5 1030.5C751.91 1030.5 534.122 976.62 376.498 889.534C218.857 802.438 121.5 682.197 121.5 549.5C121.5 416.803 218.857 296.562 376.498 209.466C534.122 122.38 751.91 68.5 992.5 68.5C1233.09 68.5 1450.88 122.38 1608.5 209.466C1766.14 296.562 1863.5 416.803 1863.5 549.5Z" stroke="#DB4437"/>
<path d="M1987.5 550C1987.5 602.717 1963.19 652.977 1919.15 698.734C1875.11 744.494 1811.36 785.726 1732.54 820.364C1574.91 889.64 1357.11 932.5 1116.5 932.5C875.894 932.5 658.091 889.64 500.458 820.364C421.64 785.726 357.888 744.494 313.847 698.734C269.808 652.977 245.5 602.717 245.5 550C245.5 497.283 269.808 447.023 313.847 401.266C357.888 355.506 421.64 314.274 500.458 279.636C658.091 210.36 875.894 167.5 1116.5 167.5C1357.11 167.5 1574.91 210.36 1732.54 279.636C1811.36 314.274 1875.11 355.506 1919.15 401.266C1963.19 447.023 1987.5 497.283 1987.5 550Z" stroke="#F4B400"/>
<path d="M2111.5 569C2111.5 613.123 2087.22 655.22 2043.18 693.571C1999.15 731.92 1935.39 766.479 1856.57 795.512C1698.93 853.576 1481.11 889.5 1240.5 889.5C999.885 889.5 782.071 853.576 624.429 795.512C545.606 766.479 481.853 731.92 437.815 693.571C393.776 655.22 369.5 613.123 369.5 569C369.5 524.877 393.776 482.78 437.815 444.429C481.853 406.08 545.606 371.521 624.429 342.488C782.071 284.424 999.885 248.5 1240.5 248.5C1481.11 248.5 1698.93 284.424 1856.57 342.488C1935.39 371.521 1999.15 406.08 2043.18 444.429C2087.22 482.78 2111.5 524.877 2111.5 569Z" stroke="#0F9D58"/>
</svg>
